<svg width="457" height="300" viewBox="0 0 457 300" fill="none" xmlns="http://www.w3.org/2000/svg">
<path d="M451.4 243.1L368.8 195.4C366.1 193.8 361.7 193.8 359 195.4L276.9 243.1C274.2 244.7 274.2 247.2 276.9 248.8L359.5 296.5C362.2 298.1 366.6 298.1 369.3 296.5L451.4 248.8C454.2 247.2 454.1 244.7 451.4 243.1Z" fill="#F3F3FB"/>
<path d="M179.4 243.1L96.8 195.4C94.1 193.8 89.7 193.8 87 195.4L4.9 243.1C2.2 244.7 2.2 247.2 4.9 248.8L87.5 296.5C90.2 298.1 94.6 298.1 97.3 296.5L179.4 248.8C182.2 247.2 182.1 244.7 179.4 243.1Z" fill="#F3F3FB"/>
<path d="M451.4 86.1L368.8 38.4C366.1 36.8 361.7 36.8 359 38.4L276.9 86.1C274.2 87.7 274.2 90.2 276.9 91.8L359.5 139.5C362.2 141.1 366.6 141.1 369.3 139.5L451.4 91.8C454.2 90.2 454.1 87.7 451.4 86.1Z" fill="#F3F3FB"/>
<path d="M134.4 222.3L324 111.7" stroke="#F3F3FB" stroke-width="1.2747" stroke-miterlimit="10"/>
<path d="M193.5 146.2L324 222.4" stroke="#F3F3FB" stroke-width="1.2747" stroke-miterlimit="10"/>
<path d="M312.7 162.4C316.8 164.8 316.9 168.7 312.7 171.1L236.9 215.2C232.8 217.6 226.1 217.6 221.9 215.2L145.6 171.1C141.5 168.7 141.4 164.8 145.6 162.4L221.4 118.3C225.5 115.9 232.2 115.9 236.4 118.3L312.7 162.4Z" fill="url(#paint0_linear)"/>
<path d="M393.2 24.4L393.3 79.3L380.8 86.6L380.6 31.6L393.2 24.4Z" fill="#C0C0EA"/>
<path d="M380.8 86.6L367.6 78.9L367.4 24L380.6 31.6L380.8 86.6Z" fill="#E5E5F6"/>
<path d="M380.6 31.6L367.4 24L380 16.7L393.2 24.4L380.6 31.6Z" fill="url(#paint1_linear)"/>
<g opacity="0.2">
<path opacity="0.2" d="M393.2 24.4L393.3 79.3L380.8 86.6L380.6 31.6L393.2 24.4Z" fill="#C0C0EA"/>
</g>
<path d="M374.8 65.2L374.9 89.9L362.3 97.2L362.2 72.4L374.8 65.2Z" fill="#C0C0EA"/>
<path d="M362.3 97.2L349.1 89.6V64.8L362.2 72.4L362.3 97.2Z" fill="#E5E5F6"/>
<path d="M362.2 72.4L349.1 64.8L361.7 57.5L374.8 65.2L362.2 72.4Z" fill="white"/>
<g opacity="0.2">
<path opacity="0.2" d="M374.8 65.2L374.9 89.9L362.3 97.2L362.2 72.4L374.8 65.2Z" fill="#C0C0EA"/>
</g>
<path d="M356.8 58.5L356.9 100.3L344.3 107.6L344.2 65.7L356.8 58.5Z" fill="#C0C0EA"/>
<path d="M344.3 107.6L331.2 99.9L331.1 58.1L344.2 65.7L344.3 107.6Z" fill="#E5E5F6"/>
<path d="M344.2 65.7L331.1 58.1L343.7 50.8L356.8 58.5L344.2 65.7Z" fill="white"/>
<path d="M314.5 1.09998L314.6 1.19998C314.6 1.19998 314.6 1.09998 314.5 1.09998Z" fill="url(#paint2_linear)"/>
<path d="M314.2 0.7C314.1 0.6 314.1 0.6 314 0.5C314.1 0.6 314.1 0.6 314.2 0.7Z" fill="url(#paint3_linear)"/>
<path d="M315 1.70001C315 1.70001 315 1.80001 315.1 1.80001C315 1.70001 315 1.70001 315 1.70001Z" fill="url(#paint4_linear)"/>
<path d="M313.3 0C313.4 0 313.4 0.1 313.5 0.1C313.5 0.1 313.4 0 313.3 0Z" fill="url(#paint5_linear)"/>
<path d="M315.7 4.20002C315.6 5.70002 314.6 7.10002 312.6 8.20002L236.7 52.3C234.6 53.5 231.8 54.1 229.1 54.1V217H229.2C229.4 217 229.5 217 229.7 217C229.9 217 230 217 230.2 217C230.4 217 230.5 217 230.7 217C230.9 217 231 217 231.2 217C231.4 217 231.5 217 231.7 216.9C231.9 216.9 232 216.8 232.2 216.8C232.4 216.8 232.5 216.7 232.7 216.7C232.9 216.7 233.1 216.6 233.2 216.6C233.4 216.6 233.6 216.5 233.8 216.5C234 216.4 234.2 216.4 234.4 216.3C234.6 216.2 234.8 216.1 235.1 216.1C235.4 216 235.6 215.9 235.9 215.8C236.2 215.7 236.4 215.5 236.7 215.4L312.6 171.3C314.6 170.1 315.7 168.6 315.7 167L315.8 4.10002C315.7 4.00002 315.7 4.10002 315.7 4.20002Z" fill="url(#paint6_linear)"/>
<path d="M143.7 1.09998L143.6 1.19998C143.7 1.19998 143.7 1.09998 143.7 1.09998Z" fill="url(#paint7_linear)"/>
<path d="M144.1 0.7C144.2 0.6 144.2 0.6 144.3 0.5C144.2 0.6 144.2 0.6 144.1 0.7Z" fill="url(#paint8_linear)"/>
<path d="M143.3 1.70001C143.3 1.70001 143.3 1.80001 143.2 1.80001C143.2 1.70001 143.3 1.70001 143.3 1.70001Z" fill="url(#paint9_linear)"/>
<path d="M144.9 0C144.8 0 144.8 0.1 144.7 0.1C144.8 0.1 144.9 0 144.9 0Z" fill="url(#paint10_linear)"/>
<path d="M142.6 4.20002C142.7 5.70002 143.7 7.10002 145.7 8.20002L221.6 52.3C223.7 53.5 226.5 54.1 229.2 54.1V217H229.1C228.9 217 228.8 217 228.6 217C228.4 217 228.3 217 228.1 217C227.9 217 227.8 217 227.6 217C227.4 217 227.3 217 227.1 217C226.9 217 226.8 217 226.6 216.9C226.4 216.9 226.3 216.8 226.1 216.8C225.9 216.8 225.8 216.7 225.6 216.7C225.4 216.7 225.2 216.6 225.1 216.6C224.9 216.6 224.7 216.5 224.5 216.5C224.3 216.4 224.1 216.4 223.9 216.3C223.7 216.2 223.5 216.1 223.2 216.1C222.9 216 222.7 215.9 222.4 215.8C222.1 215.7 221.9 215.5 221.6 215.4L145.7 171.3C143.7 170.1 142.6 168.6 142.6 167V3.90002C142.6 4.00002 142.6 4.10002 142.6 4.20002Z" fill="url(#paint11_linear)"/>
<path d="M140.6 251.3L140.7 251.4L140.6 251.3ZM103.5 178.8C100 176.8 97.3001 191.8 91.0001 188.1C78.5001 180.9 78.6001 215.4 78.6001 215.4L78.7001 215.3L140.7 251.2C140.7 251.2 136.4 224.4 130.3 220.9C125.5 218.1 121.1 221.3 115.9 218.3C106.6 213.1 109.8 182.5 103.5 178.8Z" fill="#C0C0EA"/>
<path d="M85.7999 209.9C82.1999 207.8 76.6999 212.7 73.2999 210.8C67.5999 207.5 60.8999 225.8 60.8999 225.8L123.1 261.7L123 261.6C123 261.6 116.8 230 112.6 227.6C108.7 225.3 102.1 234.4 98.1999 232.5C98.1999 232.5 98.0999 232.5 98.0999 232.4C93.6999 229.9 90.2999 212.5 85.7999 209.9Z" fill="#E5E5F6"/>
<path d="M103.8 272.8L103.7 272.7C103.7 272.9 103.7 272.9 103.8 272.8ZM91.3 232.4C85.1 228.8 84.9 243.3 78.8 239.7C73.6 236.7 71.6 248.3 66.3 245.2C61.1 242.2 57.2 221.6 52 218.6C47.2 215.9 41.5 236.9 41.5 236.9L41.6 236.8L103.6 272.6C103.4 270.5 99.1 236.9 91.3 232.4Z" fill="white"/>
<path d="M394.9 215.2L394.8 229.5L381.7 237.1V222.8L394.9 215.2Z" fill="#C0C0EA"/>
<path d="M394.9 215.2L381.8 222.8C371.9 217.1 356 217.1 346.2 222.8C345.3 223.3 344.6 223.8 343.9 224.4L329.1 218.2C343.1 207 370.3 204.5 389.7 212.6C391.4 213.4 393.3 214.3 394.9 215.2Z" fill="#C0C0EA"/>
<path d="M381.7 222.8V237C371.8 231.3 355.9 231.3 346.1 237C345.2 237.5 344.5 238 343.8 238.6V224.4C344.5 223.9 345.3 223.3 346.1 222.8C356 217.2 371.9 217.2 381.7 222.8Z" fill="#C0C0EA"/>
<path d="M343.8 224.4V238.6L329 232.5L329.1 218.2L343.8 224.4Z" fill="#C0C0EA"/>
<path d="M385.9 226V240.2C384.8 239.1 383.4 238 381.7 237V222.8C383.4 223.8 384.8 224.9 385.9 226Z" fill="#7A77FF"/>
<path d="M394.9 215.2C398 217 400.1 218.6 402.2 220.8L386 226C384.9 224.9 383.5 223.8 381.8 222.8L394.9 215.2Z" fill="#7A77FF"/>
<path d="M402.2 220.8L402.1 235L385.9 240.3V226L402.2 220.8Z" fill="#7A77FF"/>
<path d="M338.8 247.3V233.1C338.8 230 340.5 227 343.8 224.4V238.6C340.5 241.2 338.8 244.3 338.8 247.3Z" fill="white"/>
<path d="M389.2 233.2V247.4C389.2 244.9 388.1 242.4 386 240.2V226C388.1 228.3 389.2 230.7 389.2 233.2Z" fill="#151446"/>
<path d="M407.6 234.8L407.5 249L389.1 248.2V234L407.6 234.8Z" fill="#151446"/>
<path d="M402.2 220.8C406.4 225.2 408.2 229.7 407.6 234.7L389.1 234C389.4 231.3 388.3 228.5 385.9 226L402.2 220.8Z" fill="#151446"/>
<path d="M407.7 232.9V247.1C407.7 247.7 407.7 248.3 407.6 248.9V234.7C407.6 234.1 407.7 233.5 407.7 232.9Z" fill="#151446"/>
<path d="M338.8 247.3V233.1C338.8 230 340.5 227 343.8 224.4V238.6C340.5 241.2 338.8 244.3 338.8 247.3Z" fill="#C0C0EA"/>
<path d="M407.6 234.8C406.4 244.9 396.2 252.9 380 256.5L373.5 246.7C376.6 246 379.5 244.9 381.9 243.5C386.4 240.9 388.8 237.5 389.2 234L407.6 234.8Z" fill="#FF6492"/>
<path d="M407.6 234.8V249C406.4 259.1 396.2 267.1 380 270.7V256.5C396.2 252.9 406.4 244.8 407.6 234.8Z" fill="#FF6492"/>
<path d="M380 256.5L379.9 270.7L373.4 260.9V246.7L380 256.5Z" fill="#FF6492"/>
<path d="M320.7 246.9V232.7C320.7 235.8 321.7 238.9 323.8 242C326.1 245.4 329.5 248.3 333.7 250.8C345.5 257.6 363.5 260.2 380 256.5V270.7C363.5 274.4 345.5 271.8 333.7 265C329.5 262.6 326.1 259.6 323.8 256.2C321.7 253.1 320.6 250 320.7 246.9Z" fill="white"/>
<path d="M343.8 224.4C336.4 230.1 337.3 238.2 346.3 243.4C353.7 247.6 364.4 248.7 373.4 246.6L379.9 256.4C363.4 260.1 345.4 257.5 333.6 250.7C329.4 248.3 326 245.3 323.7 241.9C318.2 233.7 320.1 225.3 329 218.1L343.8 224.4Z" fill="white"/>
<path d="M407.6 234.8V249C406.4 259.1 396.2 267.1 380 270.7V256.5C396.2 252.9 406.4 244.8 407.6 234.8Z" fill="#DF578C"/>
<path d="M320.7 246.9V232.7C320.7 235.8 321.7 238.9 323.8 242C326.1 245.4 329.5 248.3 333.7 250.8C345.5 257.6 363.5 260.2 380 256.5V270.7C363.5 274.4 345.5 271.8 333.7 265C329.5 262.6 326.1 259.6 323.8 256.2C321.7 253.1 320.6 250 320.7 246.9Z" fill="#DFDFF4"/>
<path d="M381.7 222.8V237C371.8 231.3 355.9 231.3 346.1 237C345.2 237.5 344.5 238 343.8 238.6V224.4C344.5 223.9 345.3 223.3 346.1 222.8C356 217.2 371.9 217.2 381.7 222.8Z" fill="#9191D7"/>
<path d="M385.9 226V240.2C384.8 239.1 383.4 238 381.7 237V222.8C383.4 223.8 384.8 224.9 385.9 226Z" fill="#5C5AEA"/>
<path d="M271.2 80.8L229 56.3V73.2L271.2 97.6V80.8Z" fill="#FF6492"/>
<path d="M271.1 97.6L258.4 105L229 87.9L212.1 97.6L199.4 90.8L229 73.3L271.1 97.6Z" fill="#141446"/>
<path d="M212.1 97.6L199.4 90.8V105L212.1 97.6Z" fill="#A14474"/>
<path d="M186.8 129.2L229 105L271.2 129.2L229 153.6L186.8 129.2Z" fill="#141446"/>
<path d="M271.2 112.4L229 87.6V105L271.2 129.2V112.4Z" fill="#FF6492"/>
<path d="M199.4 105V90.8L229 73.2V56.3L186.8 80.8V129.2L229 105V87.6L199.4 105Z" fill="#7A77FF"/>
<defs>
<linearGradient id="paint0_linear" x1="142.46" y1="166.751" x2="315.814" y2="166.751" gradientUnits="userSpaceOnUse">
<stop stop-color="#E5E5F6"/>
<stop offset="1" stop-color="#C0C0EA"/>
</linearGradient>
<linearGradient id="paint1_linear" x1="380.317" y1="10.6271" x2="380.317" y2="34.4584" gradientUnits="userSpaceOnUse">
<stop stop-color="#F3F3FB"/>
<stop offset="1" stop-color="white"/>
</linearGradient>
<linearGradient id="paint2_linear" x1="404.622" y1="200.048" x2="329.702" y2="34.4891" gradientUnits="userSpaceOnUse">
<stop stop-color="#FF80A5"/>
<stop offset="0.1389" stop-color="#FF97B5" stop-opacity="0.8611"/>
<stop offset="0.386" stop-color="#FFBACE" stop-opacity="0.614"/>
<stop offset="0.619" stop-color="#FFD3E0" stop-opacity="0.381"/>
<stop offset="0.8302" stop-color="#FFE3EB" stop-opacity="0.1698"/>
<stop offset="1" stop-color="#FFE8EF" stop-opacity="0"/>
</linearGradient>
<linearGradient id="paint3_linear" x1="404.388" y1="200.154" x2="329.467" y2="34.5951" gradientUnits="userSpaceOnUse">
<stop stop-color="#FF80A5"/>
<stop offset="0.1389" stop-color="#FF97B5" stop-opacity="0.8611"/>
<stop offset="0.386" stop-color="#FFBACE" stop-opacity="0.614"/>
<stop offset="0.619" stop-color="#FFD3E0" stop-opacity="0.381"/>
<stop offset="0.8302" stop-color="#FFE3EB" stop-opacity="0.1698"/>
<stop offset="1" stop-color="#FFE8EF" stop-opacity="0"/>
</linearGradient>
<linearGradient id="paint4_linear" x1="404.761" y1="199.985" x2="329.841" y2="34.426" gradientUnits="userSpaceOnUse">
<stop stop-color="#FF80A5"/>
<stop offset="0.1389" stop-color="#FF97B5" stop-opacity="0.8611"/>
<stop offset="0.386" stop-color="#FFBACE" stop-opacity="0.614"/>
<stop offset="0.619" stop-color="#FFD3E0" stop-opacity="0.381"/>
<stop offset="0.8302" stop-color="#FFE3EB" stop-opacity="0.1698"/>
<stop offset="1" stop-color="#FFE8EF" stop-opacity="0"/>
</linearGradient>
<linearGradient id="paint5_linear" x1="404.052" y1="200.306" x2="329.132" y2="34.7471" gradientUnits="userSpaceOnUse">
<stop stop-color="#FF80A5"/>
<stop offset="0.1389" stop-color="#FF97B5" stop-opacity="0.8611"/>
<stop offset="0.386" stop-color="#FFBACE" stop-opacity="0.614"/>
<stop offset="0.619" stop-color="#FFD3E0" stop-opacity="0.381"/>
<stop offset="0.8302" stop-color="#FFE3EB" stop-opacity="0.1698"/>
<stop offset="1" stop-color="#FFE8EF" stop-opacity="0"/>
</linearGradient>
<linearGradient id="paint6_linear" x1="303.224" y1="178.474" x2="249.681" y2="60.1621" gradientUnits="userSpaceOnUse">
<stop stop-color="#FF80A5"/>
<stop offset="0.1389" stop-color="#FF97B5" stop-opacity="0.8611"/>
<stop offset="0.386" stop-color="#FFBACE" stop-opacity="0.614"/>
<stop offset="0.619" stop-color="#FFD3E0" stop-opacity="0.381"/>
<stop offset="0.8302" stop-color="#FFE3EB" stop-opacity="0.1698"/>
<stop offset="1" stop-color="#FFE8EF" stop-opacity="0"/>
</linearGradient>
<linearGradient id="paint7_linear" x1="53.6665" y1="200.048" x2="128.594" y2="34.4977" gradientUnits="userSpaceOnUse">
<stop stop-color="#FF80A5"/>
<stop offset="0.1389" stop-color="#FF97B5" stop-opacity="0.8611"/>
<stop offset="0.386" stop-color="#FFBACE" stop-opacity="0.614"/>
<stop offset="0.619" stop-color="#FFD3E0" stop-opacity="0.381"/>
<stop offset="0.8302" stop-color="#FFE3EB" stop-opacity="0.1698"/>
<stop offset="1" stop-color="#FFE8EF" stop-opacity="0"/>
</linearGradient>
<linearGradient id="paint8_linear" x1="53.8941" y1="200.154" x2="128.818" y2="34.5994" gradientUnits="userSpaceOnUse">
<stop stop-color="#FF80A5"/>
<stop offset="0.1389" stop-color="#FF97B5" stop-opacity="0.8611"/>
<stop offset="0.386" stop-color="#FFBACE" stop-opacity="0.614"/>
<stop offset="0.619" stop-color="#FFD3E0" stop-opacity="0.381"/>
<stop offset="0.8302" stop-color="#FFE3EB" stop-opacity="0.1698"/>
<stop offset="1" stop-color="#FFE8EF" stop-opacity="0"/>
</linearGradient>
<linearGradient id="paint9_linear" x1="53.5132" y1="199.985" x2="128.434" y2="34.426" gradientUnits="userSpaceOnUse">
<stop stop-color="#FF80A5"/>
<stop offset="0.1389" stop-color="#FF97B5" stop-opacity="0.8611"/>
<stop offset="0.386" stop-color="#FFBACE" stop-opacity="0.614"/>
<stop offset="0.619" stop-color="#FFD3E0" stop-opacity="0.381"/>
<stop offset="0.8302" stop-color="#FFE3EB" stop-opacity="0.1698"/>
<stop offset="1" stop-color="#FFE8EF" stop-opacity="0"/>
</linearGradient>
<linearGradient id="paint10_linear" x1="54.2301" y1="200.306" x2="129.154" y2="34.7514" gradientUnits="userSpaceOnUse">
<stop stop-color="#FF80A5"/>
<stop offset="0.1389" stop-color="#FF97B5" stop-opacity="0.8611"/>
<stop offset="0.386" stop-color="#FFBACE" stop-opacity="0.614"/>
<stop offset="0.619" stop-color="#FFD3E0" stop-opacity="0.381"/>
<stop offset="0.8302" stop-color="#FFE3EB" stop-opacity="0.1698"/>
<stop offset="1" stop-color="#FFE8EF" stop-opacity="0"/>
</linearGradient>
<linearGradient id="paint11_linear" x1="155.051" y1="178.474" x2="208.593" y2="60.1621" gradientUnits="userSpaceOnUse">
<stop stop-color="#FF80A5"/>
<stop offset="0.1389" stop-color="#FF97B5" stop-opacity="0.8611"/>
<stop offset="0.386" stop-color="#FFBACE" stop-opacity="0.614"/>
<stop offset="0.619" stop-color="#FFD3E0" stop-opacity="0.381"/>
<stop offset="0.8302" stop-color="#FFE3EB" stop-opacity="0.1698"/>
<stop offset="1" stop-color="#FFE8EF" stop-opacity="0"/>
</linearGradient>
</defs>
</svg>
